<?xml version="1.0" encoding="utf-8"?>
<!-- Generator: Adobe Illustrator 24.0.0, SVG Export Plug-In . SVG Version: 6.00 Build 0)  -->
<svg version="1.1" id="Layer_1" xmlns="http://www.w3.org/2000/svg" xmlns:xlink="http://www.w3.org/1999/xlink" x="0px" y="0px"
	 width="497.3px" height="121.7px" viewBox="0 0 497.3 121.7" style="enable-background:new 0 0 497.3 121.7;" xml:space="preserve"
	 fill="#b7b7b7">
<g>
	<g>
		<g>
			<path d="M165.6,45.4L165.6,45.4c0-8.1,6-14.7,14.7-14.7c5.3,0,8.5,1.8,11.1,4.4l-3.9,4.6c-2.2-2-4.4-3.2-7.2-3.2
				c-4.8,0-8.2,3.9-8.2,8.8v0.1c0,4.8,3.3,8.9,8.2,8.9c3.2,0,5.2-1.3,7.4-3.3l3.9,4c-2.9,3.1-6.1,5-11.6,5
				C171.7,59.9,165.6,53.5,165.6,45.4z"/>
			<path d="M206.2,31h5.7L224,59.4h-6.5l-2.6-6.3h-11.9l-2.6,6.3h-6.3L206.2,31z M212.8,47.6l-3.7-9.1l-3.7,9.1H212.8z"/>
			<path d="M226.1,55.3l3.7-4.4c2.5,2.1,5.2,3.4,8.4,3.4c2.5,0,4.1-1,4.1-2.7v-0.1c0-1.6-1-2.4-5.7-3.6c-5.7-1.5-9.3-3-9.3-8.6v-0.1
				c0-5.1,4.1-8.5,9.9-8.5c4.1,0,7.6,1.3,10.5,3.6l-3.2,4.7c-2.5-1.7-5-2.8-7.3-2.8c-2.4,0-3.6,1.1-3.6,2.5v0.1
				c0,1.9,1.2,2.5,6.1,3.7c5.7,1.5,8.9,3.5,8.9,8.5v0.1c0,5.6-4.3,8.7-10.4,8.7C233.8,59.8,229.4,58.3,226.1,55.3z"/>
			<path d="M259.8,36.9h-8.6v-5.7h23.4v5.7H266v22.5h-6.2V36.9z"/>
			<path d="M279.3,31.2h6.2v22.6h14.1v5.6h-20.3V31.2z"/>
			<path d="M304.3,31.2h21.3v5.5h-15.1v5.7h13.3V48h-13.3v5.9h15.3v5.5h-21.5V31.2z"/>
			<path d="M343.6,31.2h6.2v28.2h-6.2V31.2z"/>
			<path d="M354.9,55.3l3.7-4.4c2.5,2.1,5.2,3.4,8.4,3.4c2.5,0,4.1-1,4.1-2.7v-0.1c0-1.6-1-2.4-5.7-3.6c-5.7-1.5-9.3-3-9.3-8.6v-0.1
				c0-5.1,4.1-8.5,9.9-8.5c4.1,0,7.6,1.3,10.5,3.6l-3.2,4.7c-2.5-1.7-5-2.8-7.3-2.8s-3.6,1.1-3.6,2.5v0.1c0,1.9,1.2,2.5,6.1,3.7
				c5.7,1.5,8.9,3.5,8.9,8.5v0.1c0,5.6-4.3,8.7-10.4,8.7C362.6,59.8,358.3,58.3,354.9,55.3z"/>
			<path d="M382.7,31.2h6.2v22.6h14.1v5.6h-20.3V31.2z"/>
			<path d="M417.3,31h5.7l12.1,28.4h-6.5l-2.6-6.3h-11.9l-2.6,6.3h-6.3L417.3,31z M423.8,47.6l-3.7-9.1l-3.7,9.1H423.8z"/>
			<path d="M439.5,31.2h5.7l13.2,17.4V31.2h6.1v28.2h-5.3l-13.7-17.9v17.9h-6.1V31.2z"/>
			<path d="M471.3,31.2h11c8.9,0,15,6.1,15,14v0.1c0,7.9-6.1,14.1-15,14.1h-11V31.2z M482.3,53.8c5.1,0,8.5-3.4,8.5-8.4v-0.1
				c0-5-3.4-8.5-8.5-8.5h-4.8v17H482.3z"/>
		</g>
	</g>
	<g>
		<g>
			<path d="M170.7,74.6l8.7,23.9l8.7-23.9h1.7l-10.4,28.5L169,74.6H170.7z"/>
			<path d="M214.4,74.6v1.6H202v11.6h12.4v1.6H202v11.6h12.4v1.6h-13.9V74.6H214.4z"/>
			<path d="M226.3,74.6h1.7l14.3,24.8V74.6h1.6v27.9h-1.6l-14.5-25v25h-1.6V74.6z"/>
			<path d="M263.2,76.2v26.3h-1.6V76.2h-7.1v-1.6h15.7v1.6H263.2z"/>
			<path d="M297.5,74.6h1.6v20c-0.3,2.1-1.2,3.9-2.7,5.4c-1.8,1.8-3.9,2.7-6.4,2.7c-2.5,0-4.7-0.9-6.4-2.7c-1.8-1.8-2.7-3.9-2.7-6.4
				v-19h1.6v19c0,2.1,0.7,3.8,2.2,5.3c1.5,1.5,3.2,2.2,5.3,2.2s3.9-0.7,5.3-2.2c1.5-1.5,2.2-3.2,2.2-5.3V74.6z"/>
			<path d="M318.2,92.8c-0.2,0-0.3,0-0.5,0H313v9.7h-1.6V74.6h7.3c2.1,0.3,3.9,1.2,5.4,2.7c1.8,1.8,2.7,3.9,2.7,6.4
				c0,2.5-0.9,4.7-2.7,6.4c-1.2,1.2-2.6,2-4.2,2.4l6.4,9.9h-1.9L318.2,92.8z M313,76.2v15h4.7c2.1,0,3.8-0.7,5.3-2.2
				c1.5-1.5,2.2-3.2,2.2-5.3c0-2.1-0.7-3.9-2.2-5.3c-1.5-1.5-3.2-2.2-5.3-2.2H313z"/>
			<path d="M351.5,74.6v1.6h-12.4v11.6h12.4v1.6h-12.4v11.6h12.4v1.6h-13.9V74.6H351.5z"/>
			<path d="M370.3,87.1c-2-0.7-3.6-1.6-4.7-2.7c-1.2-1.2-1.7-2.5-1.7-4.2c0-1.6,0.6-3,1.7-4.1c1.2-1.2,2.5-1.7,4.2-1.7
				c1.6,0,3,0.6,4.2,1.7c0.6,0.6,1.1,1.3,1.3,2.1l-1.4,0.6c-0.2-0.6-0.6-1.1-1-1.6c-0.8-0.8-1.9-1.3-3.1-1.3c-1.2,0-2.2,0.4-3.1,1.3
				c-0.8,0.8-1.3,1.9-1.3,3.1c0,1.2,0.4,2.2,1.3,3.1c0.8,0.8,1.9,1.5,3.3,2.1c2.2,0.7,4.1,1.8,5.6,3.4c1.6,1.6,2.4,3.5,2.4,5.8
				c0,2.3-0.8,4.2-2.4,5.9c-1.6,1.6-3.6,2.4-5.8,2.4c-2.3,0-4.2-0.8-5.8-2.4c-1.3-1.3-2.1-2.8-2.3-4.5l1.5-0.5
				c0.2,1.5,0.8,2.8,1.9,4c1.3,1.3,2.9,2,4.7,2c1.9,0,3.4-0.7,4.8-2c1.3-1.3,2-2.9,2-4.8c0-1.8-0.7-3.4-2-4.7
				C373.4,88.7,372,87.7,370.3,87.1z"/>
		</g>
	</g>
	<rect x="168.2" y="114" width="20.9" height="1.1"/>
	<g>
		<polygon points="67.5,3 80.1,12.4 81.6,10.5 67.5,0 53.8,10.3 55.3,12.3 		"/>
		<polygon points="14.3,43.1 12.9,41.2 0,50.9 7.1,65.7 9.3,64.7 3,51.6 		"/>
		<polygon points="35.4,119.3 27.9,103.7 25.7,104.7 33.8,121.7 52.4,121.7 52.4,119.3 		"/>
		<polygon points="100.2,119.2 84.6,119.2 84.7,121.6 101.7,121.6 110,104.1 107.8,103.1 		"/>
		<polygon points="121.6,40.4 120.2,42.3 132.2,51.3 125.5,65.5 127.7,66.5 135.3,50.6 		"/>
		<path d="M96.9,114.1l28.9-61.1L67.9,9.7l-0.3-0.2L9.5,53.2l29.1,61L96.9,114.1z M67.5,12.4l55.2,41.2l-27.4,58l-55.3,0.1
			L12.5,53.9L67.5,12.4z"/>
		<path d="M92.2,106.5l24.2-51.3L67.6,18.8L18.9,55.5l24.4,51.2L92.2,106.5z M67.6,21.9L113.3,56l-22.7,48.1l-45.8,0.1l-22.9-48
			L67.6,21.9z"/>
		<path d="M87.4,99l19.5-41.4L67.6,28.2L28.4,57.8l19.7,41.3L87.4,99z M67.6,31.3l36.3,27.1l-18,38.2l-36.2,0.1L31.4,58.5L67.6,31.3
			z"/>
	</g>
</g>
</svg>