
<svg width="369" height="81" viewBox="0 0 369 81" fill="none" xmlns="http://www.w3.org/2000/svg">
<mask id="mask0" mask-type="alpha" maskUnits="userSpaceOnUse" x="12" y="16" width="342" height="48">
<path d="M245.427 27.127L245.569 27.1288L245.575 26.6695L245.569 27.1288L245.581 27.1289L245.7 33.8116C245.7 34.5029 246.056 35.079 246.769 35.079L267.194 35.1942C267.55 35.1942 267.787 35.4247 267.787 35.7703V43.8356C267.787 44.1737 267.56 44.4016 267.217 44.4114C267.124 44.4674 267.01 44.4983 266.879 44.4983H246.493C246.425 44.4983 246.36 44.5035 246.299 44.5136C245.9 44.7087 245.7 45.1616 245.7 45.6791L245.581 53.2835C245.581 53.4008 245.554 53.5048 245.504 53.5911C245.687 54.0146 246.172 54.2263 246.73 54.2263L254.553 54.3408C254.908 54.3408 255.145 54.5697 255.145 54.913V62.9244C255.145 63.2677 254.908 63.4966 254.553 63.4966H227.53C227.174 63.4966 226.937 63.2677 226.937 62.9244V54.913C226.937 54.5697 227.174 54.3408 227.53 54.3408L234.523 54.2263C235.115 54.2263 235.708 53.9975 235.826 53.4252V26.6445C235.826 25.9578 235.234 25.6144 234.523 25.6144L227.411 25.5C227.056 25.5 226.819 25.2711 226.819 24.9278V16.9164C226.819 16.5731 227.056 16.3442 227.411 16.3442H287.857C288.213 16.3442 288.45 16.6875 288.45 16.9164V30.879C288.45 31.2224 288.213 31.4513 287.857 31.4513H279.561C279.205 31.4513 278.968 31.2224 278.968 30.879L278.85 26.8734C278.85 26.1867 278.494 25.7289 277.902 25.6144H246.493C245.782 25.6144 245.427 26.1867 245.427 26.8734V27.127ZM35.5125 16.1721H59.025H35.5125ZM143.103 53.952C143.339 53.952 143.694 54.182 143.813 54.527V62.5774C143.813 62.9224 143.576 63.1524 143.221 63.1524H132.098H127.364H116.241C115.886 63.1524 115.649 62.9224 115.649 62.5774V54.527C115.649 54.182 115.886 53.952 116.241 53.952L121.211 53.8369C121.921 53.8369 122.158 53.3769 121.803 52.8019C120.974 51.6518 118.371 47.8566 117.661 47.0516C117.069 46.2466 116.241 46.1316 115.531 46.1316C114.821 46.1316 103.461 46.1316 103.461 46.1316L95.4145 46.2466C95.0595 46.2466 94.8228 46.4766 94.8228 46.8216V52.8019C94.8228 53.4919 95.4145 53.8369 96.1245 53.8369L104.171 53.952C104.526 53.952 104.763 54.182 104.763 54.527V62.5774C104.763 62.9224 104.526 63.1524 104.171 63.1524H77.1912C76.8362 63.1524 76.5996 62.9224 76.5996 62.5774V54.527C76.5996 54.182 76.8362 53.952 77.1912 53.952L83.9362 53.8369C84.6462 53.8369 85.2379 53.4919 85.2379 52.8019V26.6956C85.2379 26.0055 84.6462 25.6605 83.9362 25.6605L77.0729 25.5455C76.7179 25.5455 76.4812 25.3155 76.4812 24.9705V16.575C76.4812 16.23 76.7179 16 77.0729 16H122.039C130.559 16 137.423 22.7853 137.423 31.0658C137.423 36.5861 134.464 41.3013 129.968 43.9464C128.666 44.4065 128.548 45.2115 129.021 46.0165C129.376 46.5916 132.808 51.8818 133.518 53.0319C133.991 53.7219 134.346 53.8369 135.056 53.8369L143.103 53.952ZM121.803 36.7011C124.998 36.7011 127.601 34.1709 127.601 31.0658C127.601 27.9606 124.998 25.4305 121.803 25.4305H120.974L95.2961 25.5455C94.9411 25.5455 94.7045 25.7755 94.7045 26.1205V36.011C94.7045 36.356 94.9411 36.5861 95.2961 36.5861L120.974 36.7011H121.803ZM58.7644 63.4966H29.135C22.5904 63.4966 16.1648 57.875 13.4279 50.9915C12.476 48.4675 12 45.8288 12 43.1901V36.8801C12 34.2414 12.476 31.6027 13.4279 29.0788C16.1648 22.1952 22.2334 16.5736 29.135 16.5736L69.4738 16.3442C69.8308 16.3442 70.0687 16.5736 70.0687 16.9178V30.9144C70.0687 31.2586 69.8308 31.488 69.4738 31.488H60.7873C60.4303 31.488 60.1923 31.2586 60.1923 30.9144L60.0733 27.1284C60.0733 26.4401 59.7163 25.8664 59.0024 25.8664L30.444 25.9812C27.3501 25.9812 24.1373 28.8493 22.5904 32.5206C21.9954 34.012 21.7575 35.3887 21.7575 36.8801V43.3048C21.7575 44.6815 21.9954 46.173 22.5904 47.6644C24.0183 51.3356 27.2311 54.4332 30.444 54.4332L58.7644 54.3185C59.4783 54.3185 60.0733 53.7449 60.0733 53.0565L60.1923 49.0411C60.1923 48.6969 60.4303 48.4675 60.7873 48.4675H69.4738C69.8308 48.4675 70.0687 48.6969 70.0687 49.0411V62.8082C70.0687 63.1524 69.8308 63.3819 69.4738 63.3819H60.9063L58.7644 63.4966ZM221.683 54.3408C222.038 54.3408 222.275 54.5697 222.157 54.913V62.9244C222.157 63.2677 221.92 63.4966 221.564 63.4966H194.545C194.189 63.4966 193.952 63.2677 193.952 62.9244V54.913C193.952 54.5697 194.189 54.3408 194.545 54.3408L201.181 54.2263C201.892 54.2263 202.485 53.883 202.485 53.1963V47.245V47.1306C202.485 46.4439 202.129 45.8717 201.418 45.8717H170.251C169.54 45.8717 169.184 46.4439 169.184 47.1306V47.245V53.1963C169.184 53.883 169.777 54.2263 170.488 54.2263L177.124 54.3408C177.48 54.3408 177.717 54.5697 177.717 54.913V62.9244C177.717 63.2677 177.48 63.4966 177.124 63.4966H150.105C149.75 63.4966 149.512 63.2677 149.512 62.9244V54.913C149.512 54.5697 149.75 54.3408 150.105 54.3408L158.4 54.2263C159.111 54.2263 159.704 53.883 159.704 53.1963V36.6014C159.704 36.6014 159.704 34.0836 160.178 32.0235C161.719 24.3555 169.066 16.3442 176.887 16.3442H194.9C202.603 16.3442 209.951 24.3555 211.61 32.0235C212.084 34.0836 212.084 36.6014 212.084 36.6014V53.1963C212.084 53.883 212.676 54.2263 213.387 54.2263L221.683 54.3408ZM201.181 36.487C202.129 36.487 202.603 36.1436 202.603 35.1136C202.485 34.198 202.248 33.0535 201.3 31.1079C199.404 27.1023 195.73 25.5 192.886 25.5H179.021C176.176 25.5 172.503 27.1023 170.607 31.1079C169.659 33.0535 169.422 34.3125 169.303 35.1136C169.184 36.1436 169.659 36.487 170.607 36.487H201.181ZM353.167 16.3442C353.524 16.3442 353.762 16.6875 354 16.9164V30.879C354 31.2224 353.762 31.4513 353.405 31.4513H345.076C344.719 31.4513 344.481 31.2224 344.481 30.879L344.362 26.8734C344.362 26.1867 344.005 25.7289 343.41 25.6144H329.965C329.251 25.6144 328.894 26.1867 328.894 26.8734V53.1963C328.894 53.883 329.489 54.2263 330.203 54.2263L338.056 54.3408C338.413 54.3408 338.651 54.5697 338.651 54.913V62.9244C338.651 63.2677 338.413 63.4966 338.056 63.4966H310.333C309.976 63.4966 309.738 63.2677 309.738 62.9244V54.913C309.738 54.5697 309.976 54.3408 310.333 54.3408L317.829 54.2263C318.424 54.2263 319.019 53.9975 319.137 53.4252V26.6445C319.137 25.9578 318.543 25.6144 317.829 25.6144H304.383C303.788 25.7289 303.432 26.1867 303.432 26.8734L303.313 30.879C303.313 31.2224 303.075 31.4513 302.718 31.4513H294.389C294.032 31.4513 293.794 31.2224 293.794 30.879V16.9164C293.794 16.5731 294.032 16.3442 294.389 16.3442H310.571H323.778H336.985H353.167Z" fill="#b7b7b7"/>
</mask>
<g mask="url(#mask0)">
<path d="M245.427 27.127L245.569 27.1288L245.575 26.6695L245.569 27.1288L245.581 27.1289L245.7 33.8116C245.7 34.5029 246.056 35.079 246.769 35.079L267.194 35.1942C267.55 35.1942 267.787 35.4247 267.787 35.7703V43.8356C267.787 44.1737 267.56 44.4016 267.217 44.4114C267.124 44.4674 267.01 44.4983 266.879 44.4983H246.493C246.425 44.4983 246.36 44.5035 246.299 44.5136C245.9 44.7087 245.7 45.1616 245.7 45.6791L245.581 53.2835C245.581 53.4008 245.554 53.5048 245.504 53.5911C245.687 54.0146 246.172 54.2263 246.73 54.2263L254.553 54.3408C254.908 54.3408 255.145 54.5697 255.145 54.913V62.9244C255.145 63.2677 254.908 63.4966 254.553 63.4966H227.53C227.174 63.4966 226.937 63.2677 226.937 62.9244V54.913C226.937 54.5697 227.174 54.3408 227.53 54.3408L234.523 54.2263C235.115 54.2263 235.708 53.9975 235.826 53.4252V26.6445C235.826 25.9578 235.234 25.6144 234.523 25.6144L227.411 25.5C227.056 25.5 226.819 25.2711 226.819 24.9278V16.9164C226.819 16.5731 227.056 16.3442 227.411 16.3442H287.857C288.213 16.3442 288.45 16.6875 288.45 16.9164V30.879C288.45 31.2224 288.213 31.4513 287.857 31.4513H279.561C279.205 31.4513 278.968 31.2224 278.968 30.879L278.85 26.8734C278.85 26.1867 278.494 25.7289 277.902 25.6144H246.493C245.782 25.6144 245.427 26.1867 245.427 26.8734V27.127ZM35.5125 16.1721H59.025H35.5125ZM143.103 53.952C143.339 53.952 143.694 54.182 143.813 54.527V62.5774C143.813 62.9224 143.576 63.1524 143.221 63.1524H132.098H127.364H116.241C115.886 63.1524 115.649 62.9224 115.649 62.5774V54.527C115.649 54.182 115.886 53.952 116.241 53.952L121.211 53.8369C121.921 53.8369 122.158 53.3769 121.803 52.8019C120.974 51.6518 118.371 47.8566 117.661 47.0516C117.069 46.2466 116.241 46.1316 115.531 46.1316C114.821 46.1316 103.461 46.1316 103.461 46.1316L95.4145 46.2466C95.0595 46.2466 94.8228 46.4766 94.8228 46.8216V52.8019C94.8228 53.4919 95.4145 53.8369 96.1245 53.8369L104.171 53.952C104.526 53.952 104.763 54.182 104.763 54.527V62.5774C104.763 62.9224 104.526 63.1524 104.171 63.1524H77.1912C76.8362 63.1524 76.5996 62.9224 76.5996 62.5774V54.527C76.5996 54.182 76.8362 53.952 77.1912 53.952L83.9362 53.8369C84.6462 53.8369 85.2379 53.4919 85.2379 52.8019V26.6956C85.2379 26.0055 84.6462 25.6605 83.9362 25.6605L77.0729 25.5455C76.7179 25.5455 76.4812 25.3155 76.4812 24.9705V16.575C76.4812 16.23 76.7179 16 77.0729 16H122.039C130.559 16 137.423 22.7853 137.423 31.0658C137.423 36.5861 134.464 41.3013 129.968 43.9464C128.666 44.4065 128.548 45.2115 129.021 46.0165C129.376 46.5916 132.808 51.8818 133.518 53.0319C133.991 53.7219 134.346 53.8369 135.056 53.8369L143.103 53.952ZM121.803 36.7011C124.998 36.7011 127.601 34.1709 127.601 31.0658C127.601 27.9606 124.998 25.4305 121.803 25.4305H120.974L95.2961 25.5455C94.9411 25.5455 94.7045 25.7755 94.7045 26.1205V36.011C94.7045 36.356 94.9411 36.5861 95.2961 36.5861L120.974 36.7011H121.803ZM58.7644 63.4966H29.135C22.5904 63.4966 16.1648 57.875 13.4279 50.9915C12.476 48.4675 12 45.8288 12 43.1901V36.8801C12 34.2414 12.476 31.6027 13.4279 29.0788C16.1648 22.1952 22.2334 16.5736 29.135 16.5736L69.4738 16.3442C69.8308 16.3442 70.0687 16.5736 70.0687 16.9178V30.9144C70.0687 31.2586 69.8308 31.488 69.4738 31.488H60.7873C60.4303 31.488 60.1923 31.2586 60.1923 30.9144L60.0733 27.1284C60.0733 26.4401 59.7163 25.8664 59.0024 25.8664L30.444 25.9812C27.3501 25.9812 24.1373 28.8493 22.5904 32.5206C21.9954 34.012 21.7575 35.3887 21.7575 36.8801V43.3048C21.7575 44.6815 21.9954 46.173 22.5904 47.6644C24.0183 51.3356 27.2311 54.4332 30.444 54.4332L58.7644 54.3185C59.4783 54.3185 60.0733 53.7449 60.0733 53.0565L60.1923 49.0411C60.1923 48.6969 60.4303 48.4675 60.7873 48.4675H69.4738C69.8308 48.4675 70.0687 48.6969 70.0687 49.0411V62.8082C70.0687 63.1524 69.8308 63.3819 69.4738 63.3819H60.9063L58.7644 63.4966ZM221.683 54.3408C222.038 54.3408 222.275 54.5697 222.157 54.913V62.9244C222.157 63.2677 221.92 63.4966 221.564 63.4966H194.545C194.189 63.4966 193.952 63.2677 193.952 62.9244V54.913C193.952 54.5697 194.189 54.3408 194.545 54.3408L201.181 54.2263C201.892 54.2263 202.485 53.883 202.485 53.1963V47.245V47.1306C202.485 46.4439 202.129 45.8717 201.418 45.8717H170.251C169.54 45.8717 169.184 46.4439 169.184 47.1306V47.245V53.1963C169.184 53.883 169.777 54.2263 170.488 54.2263L177.124 54.3408C177.48 54.3408 177.717 54.5697 177.717 54.913V62.9244C177.717 63.2677 177.48 63.4966 177.124 63.4966H150.105C149.75 63.4966 149.512 63.2677 149.512 62.9244V54.913C149.512 54.5697 149.75 54.3408 150.105 54.3408L158.4 54.2263C159.111 54.2263 159.704 53.883 159.704 53.1963V36.6014C159.704 36.6014 159.704 34.0836 160.178 32.0235C161.719 24.3555 169.066 16.3442 176.887 16.3442H194.9C202.603 16.3442 209.951 24.3555 211.61 32.0235C212.084 34.0836 212.084 36.6014 212.084 36.6014V53.1963C212.084 53.883 212.676 54.2263 213.387 54.2263L221.683 54.3408ZM201.181 36.487C202.129 36.487 202.603 36.1436 202.603 35.1136C202.485 34.198 202.248 33.0535 201.3 31.1079C199.404 27.1023 195.73 25.5 192.886 25.5H179.021C176.176 25.5 172.503 27.1023 170.607 31.1079C169.659 33.0535 169.422 34.3125 169.303 35.1136C169.184 36.1436 169.659 36.487 170.607 36.487H201.181ZM353.167 16.3442C353.524 16.3442 353.762 16.6875 354 16.9164V30.879C354 31.2224 353.762 31.4513 353.405 31.4513H345.076C344.719 31.4513 344.481 31.2224 344.481 30.879L344.362 26.8734C344.362 26.1867 344.005 25.7289 343.41 25.6144H329.965C329.251 25.6144 328.894 26.1867 328.894 26.8734V53.1963C328.894 53.883 329.489 54.2263 330.203 54.2263L338.056 54.3408C338.413 54.3408 338.651 54.5697 338.651 54.913V62.9244C338.651 63.2677 338.413 63.4966 338.056 63.4966H310.333C309.976 63.4966 309.738 63.2677 309.738 62.9244V54.913C309.738 54.5697 309.976 54.3408 310.333 54.3408L317.829 54.2263C318.424 54.2263 319.019 53.9975 319.137 53.4252V26.6445C319.137 25.9578 318.543 25.6144 317.829 25.6144H304.383C303.788 25.7289 303.432 26.1867 303.432 26.8734L303.313 30.879C303.313 31.2224 303.075 31.4513 302.718 31.4513H294.389C294.032 31.4513 293.794 31.2224 293.794 30.879V16.9164C293.794 16.5731 294.032 16.3442 294.389 16.3442H310.571H323.778H336.985H353.167Z" fill="#b7b7b7"/>
</g>
</svg>
