
<svg width="512" height="89" viewBox="0 0 512 89" fill="none" xmlns="http://www.w3.org/2000/svg">
<path d="M28.67 59.0649C27.3294 60.361 25.7683 61.4074 24.06 62.1549C21.5548 63.2134 18.8476 63.7084 16.13 63.6049C13.9435 63.6744 11.7685 63.2626 9.75883 62.3985C7.74913 61.5345 5.95385 60.2394 4.5 58.6049C1.5 55.2715 0 50.9382 0 45.6049V45.0149C0 39.6815 1.48667 35.3482 4.46 32.0149C5.9466 30.3621 7.77914 29.0572 9.82726 28.193C11.8754 27.3288 14.0888 26.9266 16.31 27.0149C18.6849 26.9656 21.0463 27.3835 23.26 28.2449C25.1226 28.9964 26.8209 30.1037 28.26 31.5049V37.9549H24.89L23.72 33.0449C22.8509 32.3542 21.8747 31.8104 20.83 31.4349C19.5248 30.9856 18.15 30.7723 16.77 30.8049C12.93 30.8049 9.97333 32.1182 7.9 34.7449C5.7231 37.6946 4.6252 41.3025 4.79 44.9649V45.5949C4.79 49.8416 5.79 53.2749 7.79 55.8949C8.75413 57.1731 10.0139 58.1984 11.4612 58.8828C12.9086 59.5673 14.5003 59.8906 16.1 59.8249C17.7087 59.8696 19.3146 59.6638 20.86 59.2149C21.9131 58.8981 22.9213 58.4478 23.86 57.8749V50.0849L18.03 49.8449V46.3049H28.67V59.0649Z" fill="#b7b7b7"/>
<path d="M65.91 45.5848C66.0755 50.2827 64.4936 54.8753 61.47 58.4747C60.0545 60.1408 58.2823 61.467 56.2847 62.3551C54.287 63.2431 52.1151 63.6702 49.93 63.6048C47.7978 63.6648 45.6803 63.2334 43.7416 62.3438C41.8029 61.4542 40.0949 60.1303 38.75 58.4747C35.8079 54.8379 34.2807 50.2596 34.45 45.5848V45.0748C34.2861 40.4007 35.8128 35.8243 38.75 32.1848C40.0914 30.5238 41.7982 29.1949 43.7374 28.3016C45.6766 27.4083 47.7958 26.9748 49.93 27.0348C52.117 26.9696 54.2906 27.3988 56.2887 28.2905C58.2868 29.1822 60.0579 30.5134 61.47 32.1848C64.5008 35.7813 66.09 40.3742 65.93 45.0748V45.5848H65.91ZM61.1 45.0248C61.2493 41.4122 60.1941 37.8523 58.1 34.9048C57.1535 33.6304 55.9097 32.607 54.4769 31.9237C53.0441 31.2405 51.4659 30.9181 49.88 30.9848C48.3465 30.9265 46.8232 31.2561 45.451 31.9431C44.0788 32.6301 42.9021 33.6522 42.03 34.9148C40.0427 37.9009 39.0552 41.4411 39.21 45.0248V45.5848C39.21 49.7514 40.15 53.1414 42.03 55.7548C42.9039 57.0149 44.0812 58.0345 45.4532 58.7196C46.8252 59.4047 48.3476 59.7332 49.88 59.6748C51.4703 59.7493 53.0545 59.4317 54.4932 58.7498C55.9318 58.068 57.1808 57.0429 58.13 55.7648C60.0833 53.1581 61.06 49.7648 61.06 45.5848V45.0248H61.1Z" fill="#b7b7b7"/>
<path d="M69.47 63.0947V60.0147L73.47 59.3347V31.3347L69.47 30.6547V27.5547H82.24V30.6547L78.24 31.3347V59.3347H90.59L90.96 55.2547H95.06V63.0947H69.47Z" fill="#b7b7b7"/>
<path d="M113.68 27.5449C118.347 27.5449 122.077 28.9716 124.87 31.8249C126.284 33.2845 127.389 35.0148 128.117 36.912C128.846 38.8091 129.184 40.834 129.11 42.8649V47.7249C129.203 49.7722 128.876 51.817 128.149 53.733C127.421 55.649 126.309 57.3955 124.88 58.8649C122.053 61.7049 118.323 63.1249 113.69 63.1249H98.79V60.0449L102.79 59.3649V31.3649L98.79 30.6849V27.5849H113.68V27.5449ZM107.58 31.3249V59.3249H113.68C115.137 59.3964 116.591 59.1417 117.937 58.5794C119.283 58.0171 120.487 57.1615 121.46 56.0749C123.413 53.7498 124.426 50.7787 124.3 47.7449V42.8649C124.42 39.8472 123.407 36.8938 121.46 34.5849C120.487 33.4983 119.283 32.6427 117.937 32.0805C116.591 31.5182 115.137 31.2635 113.68 31.3349H107.58V31.3249Z" fill="#b7b7b7"/>
<path d="M161 38.4552H157.61L156.71 33.4552C155.875 32.6551 154.898 32.0175 153.83 31.5751C152.533 31.0581 151.145 30.8098 149.75 30.8452C148.111 30.7614 146.476 31.0825 144.99 31.7801C143.504 32.4777 142.213 33.5304 141.23 34.8452C139.144 37.8232 138.091 41.4021 138.23 45.0352V45.5952C138.086 49.2264 139.109 52.8082 141.15 55.8152C142.056 57.1057 143.271 58.1482 144.685 58.847C146.098 59.5459 147.665 59.8788 149.24 59.8152C150.738 59.8334 152.226 59.5758 153.63 59.0552C154.768 58.6605 155.808 58.0262 156.68 57.1951L157.58 52.1951H160.97V58.5151C159.712 60.0167 158.138 61.2221 156.36 62.0451C154.139 63.1167 151.696 63.6479 149.23 63.5952C147.07 63.6502 144.925 63.2175 142.954 62.3294C140.984 61.4412 139.239 60.1204 137.85 58.4652C134.85 54.8596 133.29 50.2719 133.47 45.5852V45.0751C133.294 40.3754 134.849 35.7745 137.84 32.1452C139.236 30.4813 140.993 29.1566 142.976 28.2714C144.96 27.3861 147.119 26.9634 149.29 27.0352C151.758 26.981 154.203 27.5194 156.42 28.6051C158.191 29.4395 159.763 30.6431 161.03 32.1351V38.4552H161Z" fill="#b7b7b7"/>
<path d="M181.29 27.5654C185.163 27.5654 188.133 28.4254 190.2 30.1454C191.241 31.0457 192.062 32.1728 192.6 33.4401C193.137 34.7073 193.377 36.081 193.3 37.4554C193.325 39.1004 192.82 40.7097 191.86 42.0454C190.801 43.4568 189.371 44.5471 187.73 45.1954C189.462 45.6745 190.955 46.7791 191.92 48.2954C192.821 49.9128 193.263 51.7452 193.2 53.5954V56.4554C193.151 57.2837 193.295 58.112 193.62 58.8754C193.754 59.1315 193.949 59.3504 194.188 59.5127C194.427 59.675 194.703 59.7755 194.99 59.8054L196.16 59.9554V63.1054H193.57C192.784 63.1721 191.994 63.0207 191.289 62.6679C190.583 62.315 189.988 61.7744 189.57 61.1054C188.747 59.6644 188.339 58.024 188.39 56.3654V53.6054C188.43 52.7563 188.303 51.9077 188.014 51.108C187.726 50.3083 187.283 49.5734 186.71 48.9454C186.121 48.3536 185.414 47.8914 184.636 47.5883C183.857 47.2852 183.024 47.148 182.19 47.1854H174.47V59.2954L178.47 59.9754V63.0554H165.69V59.9754L169.69 59.2954V31.2954L165.69 30.6154V27.5654H181.29V27.5654ZM174.47 43.4354H180.79C183.457 43.4354 185.41 42.9221 186.65 41.8954C187.275 41.3347 187.765 40.6391 188.082 39.8612C188.399 39.0834 188.535 38.2436 188.48 37.4054C188.52 36.5827 188.384 35.7609 188.08 34.9951C187.776 34.2294 187.313 33.5374 186.72 32.9654C185.547 31.8721 183.733 31.3254 181.28 31.3254H174.47V43.4354Z" fill="#b7b7b7"/>
<path d="M199.52 63.0947V60.0147L203.52 59.3347V31.3347L199.52 30.6547V27.5547H226.81V36.0947H222.68L222.29 31.3347H208.29V42.8647H221.89V46.6447H208.29V59.3647H222.57L222.96 54.6047H227.06V63.1247H199.52V63.0947Z" fill="#b7b7b7"/>
<path d="M257.14 38.0448H253.47L252.57 32.9649C251.699 32.2718 250.705 31.7493 249.64 31.4248C248.288 31.0204 246.881 30.8314 245.47 30.8648C243.384 30.7285 241.312 31.2992 239.59 32.4848C238.936 32.9776 238.408 33.6194 238.052 34.3568C237.695 35.0942 237.52 35.906 237.54 36.7248C237.543 37.4921 237.735 38.2468 238.1 38.9219C238.464 39.5971 238.99 40.1717 239.63 40.5949C241.693 41.91 243.981 42.8321 246.38 43.3149C249.522 43.9455 252.455 45.3553 254.91 47.4148C255.85 48.2583 256.597 49.2942 257.1 50.4519C257.604 51.6097 257.853 52.8624 257.83 54.1249C257.86 55.4757 257.557 56.8132 256.946 58.0186C256.336 59.224 255.437 60.26 254.33 61.0349C251.638 62.879 248.419 63.7953 245.16 63.6448C242.665 63.6912 240.186 63.2356 237.87 62.3049C235.906 61.5193 234.136 60.3186 232.68 58.7849V52.1648H236.29L237.22 57.2648C238.216 58.0691 239.338 58.7042 240.54 59.1448C242.02 59.6643 243.582 59.9116 245.15 59.8749C247.182 59.9851 249.195 59.4457 250.9 58.3348C251.571 57.8705 252.116 57.2458 252.484 56.5176C252.853 55.7894 253.033 54.9806 253.01 54.1648C253.023 53.3906 252.867 52.6229 252.55 51.9161C252.234 51.2093 251.766 50.5807 251.18 50.0748C249.96 48.9748 247.803 48.0515 244.71 47.3048C241.509 46.6542 238.497 45.2866 235.9 43.3048C234.898 42.5307 234.09 41.5341 233.54 40.3938C232.99 39.2535 232.712 38.0008 232.73 36.7348C232.722 35.3778 233.039 34.0385 233.655 32.8293C234.271 31.62 235.167 30.5761 236.27 29.7849C238.933 27.8428 242.178 26.8658 245.47 27.0148C247.799 26.9833 250.111 27.4185 252.27 28.2948C254.093 29.008 255.763 30.0637 257.19 31.4049V38.0249L257.14 38.0448Z" fill="#b7b7b7"/>
<path d="M290.56 27.5449V35.4049H286.47L286.1 31.3249H278.21V59.3249L282.21 60.0049V63.0849H269.47V60.0049L273.47 59.3249V31.3249H265.47L265.13 35.4049H261V27.5449H290.54H290.56Z" fill="#b7b7b7"/>
<path d="M333.19 38.4552H329.8L328.9 33.4552C328.065 32.6551 327.088 32.0175 326.02 31.5752C324.723 31.0582 323.335 30.8098 321.94 30.8452C320.301 30.7614 318.666 31.0825 317.18 31.7801C315.694 32.4777 314.403 33.5304 313.42 34.8452C311.334 37.8232 310.281 41.4021 310.42 45.0352V45.5952C310.276 49.2264 311.299 52.8082 313.34 55.8152C314.246 57.1057 315.461 58.1482 316.875 58.8471C318.288 59.5459 319.854 59.8788 321.43 59.8152C322.927 59.8335 324.416 59.5758 325.82 59.0552C326.958 58.6605 327.998 58.0262 328.87 57.1952L329.77 52.1952H333.16V58.5152C331.902 60.0168 330.328 61.2221 328.55 62.0452C326.329 63.1168 323.886 63.6479 321.42 63.5952C319.259 63.6502 317.114 63.2175 315.144 62.3294C313.174 61.4412 311.429 60.1205 310.04 58.4652C307.016 54.8657 305.434 50.2732 305.6 45.5752V45.0652C305.424 40.3654 306.979 35.7645 309.97 32.1352C311.373 30.4663 313.137 29.1395 315.13 28.2558C317.123 27.372 319.291 26.9545 321.47 27.0352C323.938 26.981 326.383 27.5194 328.6 28.6052C330.371 29.4395 331.943 30.6431 333.21 32.1352V38.4552H333.19Z" fill="#b7b7b7"/>
<path d="M337.47 60.0149L340.11 59.6449L352.54 27.5449H356.67L368.88 59.6449L371.49 60.0149V63.0949H361.29V60.0149L363.98 59.5549L361.64 53.0149H347.4L344.98 59.5549L347.67 60.0149V63.0949H337.47V60.0149ZM348.87 49.0149H360.17L354.65 33.7549H354.47L348.87 49.0149Z" fill="#b7b7b7"/>
<path d="M390.83 27.5449C394.623 27.5449 397.573 28.5216 399.68 30.4749C401.711 32.5333 402.849 35.3085 402.849 38.1999C402.849 41.0913 401.711 43.8665 399.68 45.9249C397.573 47.8649 394.623 48.8349 390.83 48.8349H383.29V59.3349L387.29 60.0149V63.0949H374.47V60.0149L378.47 59.3349V31.3349L374.47 30.6549V27.5549H390.8L390.83 27.5449ZM383.29 45.0749H390.83C391.818 45.1528 392.811 45.0202 393.743 44.6858C394.676 44.3513 395.527 43.8227 396.24 43.1349C397.452 41.7971 398.094 40.0391 398.03 38.2349C398.089 36.4227 397.448 34.6574 396.24 33.3049C395.534 32.6032 394.686 32.0614 393.753 31.7163C392.819 31.3712 391.822 31.2309 390.83 31.3049H383.29V45.0549V45.0749Z" fill="#b7b7b7"/>
<path d="M406.24 30.6449V27.5449H419.01V30.6449L415.01 31.3249V59.3249L419.01 60.0049V63.0849H406.24V60.0049L410.24 59.3249V31.3249L406.24 30.6449Z" fill="#b7b7b7"/>
<path d="M451.14 27.5449V35.4049H447.04L446.67 31.3249H438.78V59.3249L442.78 60.0049V63.0849H429.99V60.0049L433.99 59.3249V31.3249H426.08L425.74 35.4049H421.61V27.5449H451.15H451.14Z" fill="#b7b7b7"/>
<path d="M449.03 60.0149L451.67 59.6449L464.1 27.5449H468.23L480.47 59.6449L483.08 60.0149V63.0949H472.84V60.0149L475.53 59.5549L473.19 53.0149H458.94L456.52 59.5549L459.21 60.0149V63.0949H449.03V60.0149ZM460.43 49.0149H471.71L466.19 33.7549H466.04L460.43 49.0149Z" fill="#b7b7b7"/>
<path d="M486.04 63.0947V60.0147L490.04 59.3347V31.3347L486.04 30.6547V27.5547H498.81V30.6547L494.81 31.3347V59.3347H507.16L507.53 55.2547H511.63V63.0947H486.04Z" fill="#b7b7b7"/>
</svg>
