<svg width="86" height="106" viewBox="0 0 86 106" fill="none" xmlns="http://www.w3.org/2000/svg">
<path d="M80.137 22.4689H63.4455V17.03H85.5385V68.8333H80.137V22.4689ZM5.79997 53.6757H0.398471V105.122H29.5754V99.6835H5.79997V53.6757ZM12.1755 8.73791H10.9358V7.5788V1.20369V0.356649H12.2641H13.7694H14.5663H14.832H14.9648C17.4885 0.401231 19.2594 2.18448 19.2594 4.54728C19.2594 6.91008 17.4885 8.69333 14.9205 8.73791H14.8763H14.6106H13.8137H12.1755ZM12.5297 7.26673H14.9205C16.5587 7.22215 17.6656 6.10762 17.6656 4.54728C17.6656 2.98694 16.603 1.82783 14.9648 1.78325H12.574H12.4412V7.26673H12.5297ZM3.85189 8.73791H5.31295H8.72209V7.26673H5.31295V1.82783H8.72209V0.356649H5.31295H3.85189H0.398471V1.82783H3.80761V7.26673H0.398471V8.73791H3.85189ZM39.98 4.54728C39.98 7.04383 37.9433 9.09456 35.4197 9.09456C32.896 9.09456 30.8594 7.04383 30.8594 4.54728C30.8151 2.05073 32.8517 0 35.3754 0C37.899 0 39.98 2.05073 39.98 4.54728ZM35.3754 1.56034C33.7372 1.56034 32.3647 2.89778 32.3647 4.54728C32.3647 6.19678 33.693 7.53422 35.3754 7.53422C37.0136 7.53422 38.3861 6.19678 38.3861 4.54728C38.3861 2.89778 37.0578 1.56034 35.3754 1.56034ZM21.0747 0.356649V1.82783V7.26673V8.73791H27.3174H29.4869V7.26673H22.6243V5.26058H27.9815V3.83398H22.58V1.82783H29.4426V0.356649H27.2289H21.0747ZM59.2394 30.3598C59.2394 37.9832 53.0852 43.7787 45.5143 43.7787C37.9433 43.7787 31.8777 37.9832 31.8777 30.3598C31.8777 22.781 37.9433 16.9408 45.5143 16.9408C53.0852 16.9408 59.2394 22.781 59.2394 30.3598ZM45.5586 21.8448C40.7769 21.8448 37.2792 25.4113 37.2792 30.3598C37.2792 35.3974 40.7326 38.8748 45.5586 38.8748C50.2959 38.8748 53.8379 35.3974 53.8379 30.3598C53.8379 25.4113 50.2959 21.8448 45.5586 21.8448ZM13.6808 43.8233C18.6839 43.8233 22.8457 41.3713 25.0594 37.4036L21.0747 34.595C19.348 37.359 16.9572 38.9639 13.7251 38.9639C8.94347 38.9639 5.4015 35.4866 5.4015 30.4935C5.4015 25.4113 8.94347 21.8448 13.7251 21.8448C16.9572 21.8448 19.3923 23.4497 21.0747 26.2137L25.0594 23.4051C22.8014 19.4374 18.6839 16.9408 13.7251 16.9408C6.06562 16.9408 0 22.7364 0 30.3598C0 37.9832 6.02134 43.8233 13.6808 43.8233ZM77.4805 105.122H68.6699H66.102V79.3991H71.1493H75.1783C79.9156 79.3991 83.2805 82.3414 83.2805 86.5766C83.2805 88.4936 82.5721 90.054 81.3767 91.2131C84.2103 92.2384 85.8927 94.4675 85.8927 97.5882C85.8927 102.002 82.4393 105.122 77.4805 105.122ZM71.1493 89.7865H74.7355C76.905 89.7865 78.0561 88.5828 78.0561 86.8441C78.0561 85.0609 76.905 83.9018 74.7355 83.9018H71.1493V89.7865ZM80.7569 97.3653C80.7569 95.3591 79.3843 94.1108 77.1263 94.1108H71.1493V100.575H77.1263C79.3843 100.575 80.7569 99.3714 80.7569 97.3653ZM40.7769 105.122H35.2426L46.444 79.3991H48.1707L59.3279 105.122H53.7936L52.3768 101.823H42.1051L40.7769 105.122ZM47.2853 89.0732L43.9647 97.5882H50.5616L47.2853 89.0732Z" fill="#b7b7b7"/>
</svg>
