<svg width="174" height="85" viewBox="0 0 174 85" fill="none" xmlns="http://www.w3.org/2000/svg">
<path d="M167.973 44.85C173.424 51.0486 175.093 60.0057 173.321 68.2545C172.381 72.3773 170.14 75.9497 167.164 78.8657L156.862 66.1528C157.854 63.8419 158.037 61.1096 157.671 58.4576C157.07 53.913 152.688 50.6817 148.775 49.2624C146.765 48.4482 144.55 48.1328 142.357 48.2389L137.558 42.3009C141.68 33.6851 146.765 22.9934 146.765 22.9934C146.765 22.9934 129.599 22.9934 122.01 22.9934L121.644 22.2854C121.644 22.2854 121.644 9.04472 121.644 8.44289C121.644 7.96976 121.984 7.73482 122.347 7.73482H169.873C170.708 7.73482 170.576 8.33989 170.108 9.52107C170.108 9.52107 161.578 28.6193 157.196 37.4443C160.981 39.3592 164.894 41.2774 167.973 44.85ZM40.165 84.8938H38.0107L62.7819 54.663V30.6405L38.945 59.8093L15.5767 30.6405V55.754V84.4014C15.5767 84.4014 15.6794 85 15.2139 85C15.2139 85 1.06263 85 0.597128 85C0.128415 85 0 84.5334 0 84.5334V26.5337V7.63505C0 7.27137 0.234356 7.03643 0.69986 7.03643H14.6168C14.8511 7.03643 15.1882 7.4001 15.551 7.86679L39.2564 36.5688L63.5589 7.03643C63.5589 7.03643 69.6873 6.90768 77.7102 7.03643C78.1789 7.03643 78.3072 7.27137 78.3072 7.5031C78.3072 18.2656 78.3072 27.5476 78.3072 35.5551L106.064 1.47173C106.064 1.47173 107.701 -0.684626 107.701 0.222975L107.778 84.3757C107.778 84.3757 107.881 84.9743 107.416 84.9743C107.416 84.9743 93.2643 84.9743 92.7989 84.9743C92.3302 84.9743 92.2017 84.5075 92.2017 84.5075V21.0238C92.2017 21.0238 92.359 20.7888 92.6704 20.4251L40.165 84.8938Z" fill="#b7b7b7"/>
</svg>
