<svg width="310" height="98" viewBox="0 0 310 98" fill="none" xmlns="http://www.w3.org/2000/svg">
<path d="M12.2946 33.1928C13.8444 33.1928 15.4458 33.1928 16.9955 33.1928C16.9955 34.1227 16.9955 34.7427 16.9955 35.4143C11.3131 35.4143 5.68239 35.4143 0 35.4143C0 34.7943 0 33.8644 0 33.1928C1.54974 33.1928 3.15114 33.1928 4.70088 33.1928C4.70088 32.5729 4.70088 32.2629 4.70088 31.953C4.70088 22.499 4.70088 13.4067 4.70088 3.95277C4.70088 3.02287 4.39094 2.7129 3.46109 2.7129C2.2213 2.7129 1.23979 2.7129 0 2.7129C0 1.78301 0 1.16308 0 0.181521C0.309948 0.181521 0.619896 0.181521 0.929845 0.181521C6.61223 0.181521 12.243 0.181521 18.2353 0.181521C20.4566 0.181521 22.6262 0.491488 24.5376 1.11142C28.6186 2.66125 31.1498 6.43249 30.8399 10.8753C30.5299 15.2665 27.6887 18.4178 23.2978 19.3477C20.1466 19.9676 16.9955 19.9676 14.206 19.9676C12.6562 19.9676 11.9847 20.2776 11.9847 21.5175C11.9847 24.9788 11.9847 28.1301 11.9847 31.5913C12.2946 31.953 12.2946 32.5729 12.2946 33.1928ZM11.9847 2.40294C11.9847 7.72401 11.9847 12.7868 11.9847 17.4879C14.206 17.4879 16.3756 17.7979 18.5969 17.4879C21.4381 17.1779 22.3679 15.9381 22.6779 13.0967C22.6779 10.8753 22.6779 9.01554 22.6779 6.79412C22.3679 4.5727 21.1281 3.33284 18.9068 3.02287C16.6856 2.7129 14.5159 2.71291 11.9847 2.40294ZM69.2218 63.9827C69.8417 63.3628 70.7715 62.4329 72.063 61.4513C72.3729 61.1414 72.9928 60.8314 73.3028 61.1414C73.6127 61.1414 73.9227 62.0713 73.9227 62.3813C73.9227 66.1525 73.9227 69.9237 73.9227 73.695C73.9227 74.3149 73.9227 74.9348 72.6829 74.9348C71.753 74.9348 71.1331 74.9348 70.7715 73.695C70.4616 72.1452 70.1516 70.2337 69.2218 68.6839C67.6721 65.2226 65.1408 63.0012 61.0598 63.3628C56.9788 63.3628 53.5177 64.9126 51.2965 69.0455C50.6766 69.9754 50.3666 71.2669 50.0567 72.5068C49.4368 77.5179 49.1268 82.5807 50.3666 87.5918C51.6064 92.9128 56.3589 96.0642 61.9897 95.4442C66.6906 94.8243 70.4616 91.053 70.7715 85.6803C70.7715 84.7504 71.3914 84.4404 72.3213 84.4404C73.2511 84.4404 73.2511 85.0604 73.2511 85.9903C72.9412 91.3113 68.8602 96.0641 63.4878 97.614C57.8054 98.8538 49.0235 97.304 44.6326 90.0715C41.7914 85.3703 41.1715 80.3076 42.4113 74.9865C44.6326 63.6728 55.9457 59.9015 63.1778 61.7613C65.4508 62.0713 67.3104 63.0528 69.2218 63.9827ZM192.116 1.11142C192.116 1.73135 192.116 2.35127 192.116 3.33283C190.877 3.33283 189.895 3.33283 188.655 3.33283C187.725 3.33283 187.415 3.6428 187.415 4.5727C187.415 8.03398 187.415 11.8052 187.415 15.2665C187.415 15.8864 187.415 16.5064 188.345 16.5064C192.116 16.5064 195.887 16.5064 199.658 16.5064C199.658 12.1152 199.658 8.03398 199.658 3.28117C198.109 3.28117 196.507 3.28117 194.958 3.28117C194.958 2.35128 194.958 1.73135 194.958 1.05975C200.278 1.05975 205.961 1.05975 211.281 1.05975C211.281 1.67969 211.281 2.29962 211.281 3.28117C210.042 3.28117 209.06 3.28117 207.82 3.28117C206.891 3.28117 206.581 3.59114 206.581 4.52103C206.581 13.6134 206.581 23.0673 206.581 32.2113C206.581 33.1412 206.891 33.4511 207.82 33.1412C208.75 33.1412 209.732 33.1412 210.352 33.1412C211.281 33.1412 211.281 33.7611 211.281 34.381C211.281 35.3109 210.972 35.3109 210.352 35.3109C205.341 35.3109 200.278 35.3109 195.267 35.3109H194.958C194.338 33.0895 194.648 33.0895 196.507 33.0895C197.127 33.0895 198.057 33.0895 198.729 33.0895H199.038C199.038 32.7795 199.038 32.4696 199.038 32.1596C199.038 28.0784 199.038 24.3072 199.038 20.226C199.038 19.2961 198.729 18.6761 197.489 18.9861C194.338 18.9861 191.186 18.9861 187.725 18.9861C186.796 18.9861 186.486 19.2961 186.486 20.226C186.486 24.3072 186.486 28.0784 186.486 32.1596C186.486 33.0895 186.796 33.3995 187.725 33.3995C188.345 33.3995 188.965 33.3995 189.275 33.3995C191.186 33.3995 191.186 33.3995 191.186 35.6209C185.866 35.6209 180.183 35.6209 174.863 35.6209C174.863 35.001 174.863 34.381 174.863 33.3995C175.792 33.3995 177.084 33.3995 178.324 33.3995C179.253 33.3995 179.563 33.0895 179.563 32.1596C179.563 23.0673 179.563 13.9233 179.563 4.46938C179.563 3.53948 179.253 3.22951 178.324 3.22951C177.394 3.22951 176.102 3.22951 174.863 3.22951C174.863 2.60958 174.863 1.98965 174.863 1.00809C181.113 1.11141 186.434 1.11142 192.116 1.11142ZM37.1421 18.1079C37.4521 12.4252 38.6919 7.72401 43.1345 3.6428C49.7467 -2.34987 64.8309 -1.67827 68.6019 11.1853C70.1516 16.5064 70.1516 21.8791 67.6721 26.8902C64.8309 33.1928 58.2186 36.6541 50.9865 35.6726C44.0643 34.7427 39.0535 29.9899 37.762 23.119C37.4521 21.5691 37.1421 19.9676 37.1421 18.1079ZM44.9942 17.7979C44.9942 19.7093 44.9942 21.5691 45.3041 23.4806C45.6141 26.9419 46.5439 29.7832 49.0752 32.2629C51.6064 34.7943 55.6874 34.7943 57.857 32.2629C59.0968 30.7131 60.3883 28.8017 61.0082 26.9419C62.248 22.5507 62.248 18.1595 61.6281 13.7167C61.3181 11.4953 61.0082 9.3255 60.0783 7.41405C58.8385 4.5727 56.6172 2.7129 53.1561 2.7129C50.005 2.7129 47.8354 4.62436 46.5439 7.41405C44.6842 10.2554 44.9942 14.0266 44.9942 17.7979ZM273.839 3.33283C273.839 2.40293 273.839 2.09298 273.839 1.11142C274.459 1.11142 275.079 1.11142 276.061 1.11142C278.592 1.11142 281.381 1.11142 283.913 1.11142C285.152 1.11142 286.134 1.42138 286.754 2.66125C291.765 9.58381 296.827 16.5064 301.838 23.4289C301.838 23.119 301.838 23.4289 302.458 23.7389C302.458 23.119 302.768 22.809 302.768 22.499C302.768 16.8163 302.768 10.8753 302.768 5.19263C302.768 3.95276 302.458 3.28117 301.218 3.28117C300.288 3.28117 299.358 3.28117 298.067 2.97121C298.067 2.35128 298.067 1.73134 298.067 0.749786C302.148 0.749786 305.919 0.749786 310 0.749786C310 1.36972 310 1.98965 310 2.97121C308.76 2.97121 308.14 3.28117 307.159 3.28117C305.919 3.28117 305.247 3.90111 305.247 5.5026C305.247 14.9565 305.247 24.3588 305.247 33.8128C305.247 34.4327 304.938 35.3626 304.318 35.3626C303.698 35.3626 303.078 35.0526 302.406 34.7427C302.096 34.7427 302.096 34.4327 302.096 34.1227C296.414 26.2703 290.783 18.4178 284.791 10.5654C283.861 9.01553 282.57 7.72401 281.33 5.86422C281.33 6.48415 281.33 7.10408 281.33 7.41405C281.33 15.2665 281.33 23.119 281.33 30.9714C281.33 32.5212 281.64 33.1928 283.189 33.1928C283.499 33.1928 283.809 33.1928 284.119 33.1928C285.979 33.1928 285.979 33.1928 285.979 35.4143C281.898 35.4143 278.127 35.4143 274.046 35.4143C273.426 33.5028 273.426 33.1928 275.596 33.1928C278.437 32.8829 278.437 32.8829 278.437 30.0415C278.437 21.5691 278.437 13.0451 278.437 4.88266C278.437 3.6428 278.127 2.9712 276.887 3.33283C275.751 3.33283 274.769 3.33283 273.839 3.33283ZM129.868 94.7726C131.418 94.7726 132.4 94.7726 133.639 94.7726C134.569 94.7726 134.569 95.3925 134.569 96.0125C134.569 96.6324 134.569 97.2524 133.639 97.2524C128.629 97.2524 123.876 97.2524 118.865 97.2524C117.935 97.2524 117.935 96.9424 117.935 96.0125C117.935 95.3925 117.935 94.7726 118.865 94.7726C120.105 94.7726 121.086 94.7726 122.636 94.7726C122.636 94.1527 122.636 93.5328 122.636 93.2228C122.636 84.4404 122.636 75.6064 122.636 66.8241C122.636 65.5842 122.326 64.9126 121.086 64.9126C120.467 64.9126 119.847 64.9126 119.175 64.9126C118.245 64.9126 117.935 64.6027 117.935 63.6728C117.935 62.7429 118.245 62.4329 119.175 62.4329C125.167 62.4329 131.108 62.4329 137.1 62.4329C140.872 62.4329 144.643 63.6728 146.554 67.134C150.015 72.8167 146.864 79.6877 140.252 80.9792C137.41 81.5991 134.259 81.5991 131.47 81.5991C130.23 81.5991 129.92 81.9091 129.92 83.1489C129.868 87.2301 129.868 90.6914 129.868 94.7726ZM129.558 72.1452C129.558 74.3666 129.558 76.2264 129.558 78.4478C129.558 79.0677 129.558 79.6877 130.488 79.6877C132.4 79.6877 134.259 79.6876 136.171 79.3777C138.702 79.0677 139.942 77.8279 139.942 75.2965C139.942 73.0751 139.942 70.9053 139.942 68.6839C139.632 66.1525 138.702 64.9126 136.171 64.6027C134.259 64.2927 132.71 64.6027 130.85 64.2927C129.92 64.2927 129.61 64.6027 129.61 65.5326C129.558 68.0639 129.558 70.2854 129.558 72.1452ZM184.884 65.2226C182.973 65.5326 180.803 65.5326 179.202 66.1525C177.652 66.4625 176.671 67.7023 176.361 69.3038C176.051 70.5437 175.741 72.1451 175.741 73.385C175.431 75.2965 175.431 75.2965 173.209 74.9348C173.209 74.0049 173.209 73.385 173.209 72.4035C173.519 69.5621 173.829 66.7208 173.829 63.9311C173.829 63.3111 173.829 62.6912 174.759 62.6912C184.213 62.6912 193.304 62.6912 202.758 62.6912C202.758 62.6912 203.068 62.6912 203.378 63.0012C203.688 66.7724 203.998 70.8536 204.308 74.6249C202.086 75.2448 202.086 75.2448 201.776 73.075C201.466 72.1451 201.156 71.1636 201.156 69.9237C200.537 67.0824 198.625 65.5326 195.836 65.5326C194.596 65.5326 193.614 65.5326 192.375 65.5326C192.375 75.2965 192.375 85.0087 192.375 94.7726C194.596 94.7726 196.766 94.7726 198.987 94.7726C198.987 95.7025 198.987 96.3225 198.987 96.994C192.065 96.994 185.452 96.994 178.53 96.994C178.53 96.3741 178.53 95.7542 178.53 94.7726C180.752 94.7726 182.921 94.7726 185.142 94.7726C184.884 85.0604 184.884 75.2965 184.884 65.2226ZM249.663 35.4143C244.343 35.4143 239.28 35.4143 234.269 35.4143C233.649 33.1928 233.959 33.1928 235.819 33.1928C236.439 33.1928 237.059 33.1928 238.04 33.1928C237.11 30.9714 236.491 28.8017 235.819 26.8902C235.819 26.5802 235.199 26.5802 234.889 26.5802C231.738 26.5802 228.587 26.5802 225.436 26.5802C225.126 26.5802 224.506 26.8902 224.506 27.2002C223.886 29.1116 223.266 30.9714 222.595 32.8829C223.524 32.8829 224.144 33.1928 224.816 33.1928C226.727 33.1928 226.727 33.8128 226.366 35.4143C222.595 35.4143 219.133 35.4143 215.362 35.4143C215.052 33.1928 215.052 33.1928 216.912 33.1928C218.824 33.1928 219.753 32.5729 220.373 30.6614C223.524 21.2075 226.986 11.8052 230.447 2.04131C230.757 1.11141 231.066 0.129857 232.358 0.129857C233.598 0.129857 234.269 0.749786 234.579 2.04131C237.11 9.5838 239.9 17.1263 242.431 24.6688C243.361 27.2002 244.343 29.6799 244.963 32.2113C245.272 33.1412 245.892 33.4511 246.874 33.4511C247.184 33.4511 247.494 33.4511 247.804 33.4511C249.973 33.1928 249.973 33.1928 249.663 35.4143ZM235.199 23.7389C233.649 19.3477 232.048 15.2665 230.808 10.8237H230.498C228.949 14.9049 227.657 19.2961 226.107 23.3773C228.897 23.7389 231.738 23.7389 235.199 23.7389ZM98.4603 94.7726C100.01 94.7726 101.301 94.7726 102.541 94.7726C101.611 92.5512 100.992 90.3815 100.32 88.47C100.32 88.16 99.7001 87.8501 99.3901 87.8501C96.239 87.8501 93.0878 87.8501 89.9367 87.8501C89.6267 87.8501 89.0068 88.16 88.6969 88.47C88.077 90.3815 87.4571 91.9313 86.7855 94.1527C88.0253 94.4627 89.3168 94.4627 90.5566 94.7726C90.5566 95.3926 90.5566 96.0125 90.5566 96.994C86.7855 96.994 83.3244 96.994 79.5534 96.994C78.9335 94.7726 78.9335 94.7726 81.1031 94.7726C83.6344 94.7726 83.6344 94.7726 84.5642 92.2412C88.0253 82.7873 91.1765 73.385 94.6376 63.6211C94.9475 62.6912 95.2575 61.7097 96.8589 61.7097C98.4086 61.7097 98.7702 62.6396 99.0802 63.6211C102.541 73.385 106.002 83.4072 109.463 93.1711C109.773 94.411 110.393 94.721 111.685 94.721C112.305 94.721 112.615 94.721 113.234 94.721C114.164 94.721 114.164 95.3409 114.164 95.9608C114.164 96.5808 113.854 97.2007 113.234 97.2007C108.844 97.2007 104.143 97.2007 99.7001 97.2007C97.7887 96.994 98.7702 95.7542 98.4603 94.7726ZM89.9367 85.3703C93.0878 85.3703 96.239 85.3703 99.3901 85.3703C97.8404 80.9792 96.239 76.898 94.9992 72.4551H94.6892C93.0878 76.898 91.5381 80.9792 89.9367 85.3703ZM222.595 96.994C222.595 96.3741 222.595 95.7542 222.595 94.7726C223.834 94.7726 225.126 94.7726 226.676 94.7726C225.746 92.5512 225.126 90.6914 224.454 88.47C224.454 88.16 223.834 87.8501 223.214 87.8501C220.063 87.8501 217.222 87.8501 214.123 87.8501C213.813 87.8501 213.193 88.16 212.883 88.78C212.263 90.3298 211.643 92.2412 210.972 94.4627C212.211 94.7726 213.503 94.7726 214.743 95.0826C214.743 95.7025 214.743 96.3224 214.743 97.304C210.972 97.304 207.2 97.304 203.739 97.304C203.119 95.3925 203.119 95.0826 205.289 95.0826C207.82 95.0826 207.82 95.0826 208.75 92.5512C212.211 83.0973 215.362 73.695 218.824 64.241C219.133 63.3111 219.443 62.3296 221.045 62.3296C222.595 62.3296 222.956 63.2595 223.266 64.241C226.727 74.0049 230.188 84.0272 233.649 93.7911C233.959 94.721 234.579 95.3409 235.561 95.0309C235.871 95.0309 236.491 95.0309 236.801 95.0309C237.73 95.0309 238.35 95.0309 238.35 96.2708C238.35 97.5107 237.73 97.5107 236.801 97.5107C232.41 97.5107 228.019 97.5107 223.886 97.5107C223.576 96.994 223.266 96.994 222.595 96.994ZM219.185 72.7651H218.875C217.325 76.8463 216.034 81.2375 214.484 85.3187C217.635 85.3187 220.787 85.3187 223.938 85.3187C221.975 80.9792 220.425 76.8979 219.185 72.7651ZM120.415 18.1079C123.256 13.0967 125.736 8.65391 128.577 3.6428C127.337 3.33283 126.356 3.33284 125.116 3.02287C125.116 2.40294 125.116 1.78301 125.116 0.80145C128.887 0.80145 132.348 0.80145 136.119 0.80145C136.119 1.42138 136.119 2.04131 136.119 2.7129L135.809 3.02287C132.658 2.7129 131.108 4.26273 129.817 6.79412C127.595 11.4953 124.806 15.8864 122.275 20.3293C121.965 20.9492 121.655 21.5691 121.655 22.2407C121.655 25.392 121.655 28.5433 121.655 31.6947C121.655 32.6246 121.965 32.9345 122.895 32.9345C123.514 32.9345 124.134 32.9345 124.444 32.9345C126.356 32.9345 126.356 32.9345 125.994 35.1559C120.673 35.1559 115.301 35.1559 109.98 35.1559C109.98 34.536 109.98 33.9161 109.98 32.9345C111.22 32.9345 112.511 32.9345 113.441 32.9345C114.061 32.9345 114.681 32.6246 114.681 32.0046C114.681 28.8533 114.681 25.392 114.681 22.2407C114.681 21.6208 114.371 21.3108 114.061 20.6909C110.91 15.0082 107.759 9.68712 104.608 4.36605C103.988 3.74612 103.058 3.43616 102.386 3.43616C101.456 3.12619 100.475 3.43616 99.5451 3.43616C99.5451 2.81623 99.5451 2.1963 99.5451 1.21474C104.866 1.21474 109.928 1.21474 115.249 1.21474C115.249 1.83467 115.249 2.4546 115.249 3.43616C114.009 3.43616 113.028 3.43615 111.478 3.74612C114.784 8.34394 117.315 13.0967 120.415 18.1079ZM170.73 7.10408C170.73 9.01553 170.73 10.8753 170.73 12.4252C170.73 13.355 170.73 13.975 169.49 13.975C168.56 13.975 167.94 13.665 167.94 12.7351C167.63 9.58381 166.391 6.43249 163.549 4.5727C158.849 0.801452 150.997 3.33283 148.775 9.27384C148.155 11.8052 147.845 14.5949 147.845 17.1263C147.845 20.2776 148.155 23.7389 149.085 26.8902C150.325 31.5913 155.077 34.1227 160.088 33.8128C164.789 33.1928 168.25 29.4216 168.56 24.7204C168.56 23.7905 168.87 23.1706 170.11 23.1706C171.35 23.1706 171.04 24.1005 171.04 24.7204C170.73 29.7315 166.959 34.1744 161.586 35.7242C154.354 37.6357 145.882 34.1744 142.111 27.5618C138.34 20.6392 138.34 7.77567 148.724 2.40294C154.044 -0.438409 160.037 -1.05834 165.409 2.7129C165.719 3.02287 166.339 2.7129 166.649 2.7129C167.269 2.09297 167.889 1.47304 168.87 0.80145C169.18 0.80145 169.8 0.181516 170.11 0.491481C170.42 0.491481 170.73 1.42138 170.73 1.73135C170.73 3.6428 170.73 5.19263 170.73 7.10408ZM268.519 83.4589C267.899 87.8501 267.589 91.9313 266.969 96.3741C266.969 96.6841 266.039 96.994 265.419 96.994C259.117 96.994 252.866 96.994 246.564 96.994C245.634 96.994 244.653 96.994 243.723 96.994C241.811 96.994 241.811 96.994 242.173 94.7726C243.723 94.7726 245.014 94.7726 246.564 94.7726C246.564 94.1527 246.564 93.5328 246.564 93.2228C246.564 84.4404 246.564 75.2965 246.564 66.5141C246.564 65.2743 246.254 64.6027 245.014 64.9643C244.704 64.9643 244.084 64.9643 243.774 64.9643C241.553 64.9643 241.553 64.9643 242.225 62.7429C247.907 62.7429 253.848 62.7429 259.53 62.7429C260.15 64.9643 259.84 64.9643 257.98 64.9643C256.741 64.9643 255.449 64.9643 253.899 64.9643C253.899 75.0382 253.899 84.7504 253.899 94.5143C259.582 95.7542 263.973 93.2745 265.212 87.9017C265.522 86.9718 265.522 85.9903 265.832 85.0604C266.297 83.1489 266.297 82.839 268.519 83.4589ZM100.63 21.8791C100.01 26.2703 99.7001 30.9714 99.0802 35.4143C90.6082 35.4143 82.3946 35.4143 74.2326 35.4143C74.2326 34.7943 74.2326 34.1744 74.2326 33.1928C75.4724 33.1928 76.4539 33.1928 77.6937 33.1928C78.6236 33.1928 78.9335 32.8829 78.9335 31.953C78.9335 22.499 78.9335 13.0967 78.9335 3.95277C78.9335 3.6428 78.9335 3.6428 78.9335 3.33283C77.3838 3.33283 76.0923 3.33283 74.5426 3.33283C74.5426 2.40293 74.5426 1.78301 74.5426 1.11142C80.5349 1.11142 86.4756 1.11142 92.4679 1.11142C92.4679 1.73135 92.4679 2.35127 92.4679 3.33283C90.5566 3.33283 88.6969 3.33283 86.4756 3.33283C86.4756 3.95276 86.4756 4.57269 86.4756 4.88266C86.4756 13.665 86.4756 22.809 86.4756 31.5913C86.4756 32.8312 86.7855 33.1412 88.0253 33.1412C94.3276 33.1412 97.1171 30.6098 98.4086 24.3588C98.4086 24.0489 98.7186 23.7389 98.7186 23.4289C98.0987 21.5691 99.0802 21.5691 100.63 21.8791ZM152.185 64.9126C152.185 63.9827 152.185 63.3628 152.185 62.6912C157.867 62.6912 163.498 62.6912 169.18 62.6912C169.18 63.3111 169.18 63.9311 169.18 64.9126C167.94 64.9126 166.649 64.9126 165.409 64.9126C164.789 64.9126 164.169 65.2226 164.169 65.8425C164.169 75.2965 164.169 84.6988 164.169 94.1527C164.169 94.4627 164.169 94.4627 164.479 94.7726C166.029 94.7726 167.63 94.7726 169.18 94.7726C169.18 95.7025 169.18 96.3225 169.18 96.994C163.498 96.994 157.867 96.994 152.185 96.994C152.185 96.3741 152.185 95.7542 152.185 94.7726C153.424 94.7726 154.716 94.7726 155.956 94.7726C156.886 94.7726 156.886 94.4627 156.886 93.8427C156.886 84.7504 156.886 75.2965 156.886 66.1525C156.886 65.2226 156.576 64.9126 155.646 64.9126C154.716 64.9126 153.476 64.9126 152.185 64.9126ZM253.434 3.33283C253.434 2.40293 253.434 1.78301 253.434 1.11142C254.054 1.11142 254.674 1.11142 254.984 1.11142C259.375 1.11142 264.076 1.11142 268.519 1.11142C270.378 0.801453 270.378 0.801447 270.378 3.33283C269.758 3.33283 268.829 3.33283 267.847 3.33283C267.227 3.33283 266.297 3.33283 265.316 3.33283C265.316 3.95276 265.316 4.57269 265.316 4.88266C265.316 13.665 265.316 22.499 265.316 31.5913C265.316 33.1412 265.626 33.5028 267.227 33.1412C267.537 33.1412 268.157 33.1412 268.467 33.1412C270.327 33.1412 270.327 33.1412 270.327 35.3626C264.644 35.3626 259.014 35.3626 253.331 35.3626C253.021 33.1412 253.021 33.1412 255.242 33.1412C258.394 33.1412 258.394 33.1412 258.394 29.9899C258.394 21.5175 258.394 12.9934 258.394 4.831C258.394 3.59114 258.084 2.91955 256.844 3.28117C255.604 3.33284 254.364 3.33283 253.434 3.33283Z" fill="#b7b7b7"/>
</svg>
