<svg width="116" height="85" viewBox="0 0 116 85" fill="none" xmlns="http://www.w3.org/2000/svg">
<mask id="mask0" mask-type="alpha" maskUnits="userSpaceOnUse" x="0" y="0" width="116" height="85">
<path d="M0 84.0979H115.034V0H0V84.0979Z" fill="white"/>
</mask>
<g mask="url(#mask0)">
<path fill-rule="evenodd" clip-rule="evenodd" d="M100.766 46.1595V37.9068L108.782 42.0331L100.766 46.1595ZM113.133 38.9172L96.0037 30.0986V53.9677L113.134 45.1491C114.306 44.5451 115.034 43.3514 115.034 42.0331C115.034 40.7148 114.306 39.5212 113.133 38.9172Z" fill="#b7b7b7"/>
<path fill-rule="evenodd" clip-rule="evenodd" d="M9.31861 28.1742C16.1307 28.1925 21.7904 33.1538 22.9222 39.6516H4.89625C5.33039 35.3872 6.90187 31.4545 9.31861 28.1742ZM28.1756 18.6192C40.2815 18.6192 50.2715 27.856 51.4684 39.6516H27.7343C26.7358 31.8791 20.9404 25.5892 13.4116 23.8781C17.4427 20.593 22.5825 18.6192 28.1756 18.6192ZM42.0649 4.72983C61.8338 4.72983 78.0502 20.1891 79.2835 39.6516H56.2431C55.0296 25.2265 42.9086 13.8571 28.1756 13.8571C22.8508 13.8571 17.8744 15.3508 13.6267 17.931C20.4737 9.86333 30.6788 4.72983 42.0649 4.72983ZM42.0649 79.3354C30.678 79.3354 20.4737 74.2019 13.6259 66.1342C17.8744 68.7144 22.8508 70.2081 28.1756 70.2081C42.9086 70.2081 55.0288 58.8387 56.2431 44.4136H79.2835C78.0502 63.877 61.833 79.3354 42.0649 79.3354ZM27.7343 44.4136H51.4684C50.2715 56.2093 40.2815 65.4461 28.1756 65.4461C22.5817 65.4461 17.4427 63.4722 13.4108 60.1872C20.9404 58.4752 26.7358 52.1861 27.7343 44.4136ZM9.31861 55.891C6.90187 52.6107 5.33039 48.6781 4.89625 44.4136H22.9222C21.7904 50.9115 16.1307 55.8727 9.31861 55.891ZM82.4035 30.1291C77.2557 12.715 61.1258 -0.0322266 42.0649 -0.0322266C18.8697 -0.0322266 6.10352e-05 18.8374 6.10352e-05 42.0326C6.10352e-05 65.2278 18.8697 84.0975 42.0649 84.0975C61.1258 84.0975 77.2557 71.3502 82.4035 53.9362C83.8543 49.0297 86.2068 44.4208 91.2625 44.4208V39.6444C86.2068 39.6444 83.8543 35.0356 82.4035 30.1291Z" fill="#b7b7b7"/>
</g>
</svg>
